<svg xmlns="http://www.w3.org/2000/svg" viewBox="0 0 104 56" fill="none" role="img" aria-label="ooru">
  <text x="4" y="32" font-family="'DM Sans', system-ui, sans-serif" font-weight="700" font-size="32" fill="#1A1A1A" letter-spacing="-1.2">ooru</text>
  <circle cx="99" cy="29" r="3.4" fill="#FF5900"/>
  <g transform="translate(4,40) scale(0.0593) translate(-27.27,-23.94)"><path d="M 226.558594 3.070312 C 220.757812 3.070312 215.722656 2.261719 211.457031 0.640625 C 207.1875 -0.980469 203.519531 -3.15625 200.449219 -5.886719 C 195.667969 -10.324219 192.296875 -16.042969 190.335938 -23.039062 C 188.375 -30.039062 187.390625 -38.742188 187.390625 -49.152344 L 187.390625 -84.992188 C 187.390625 -94.378906 186.667969 -102.910156 185.214844 -110.59375 C 183.765625 -118.273438 180.734375 -124.246094 176.128906 -128.511719 C 171.863281 -132.609375 165.71875 -134.65625 157.695312 -134.65625 C 149.675781 -134.65625 143.359375 -132.949219 138.753906 -129.535156 C 134.144531 -126.121094 130.945312 -121.601562 129.152344 -115.96875 C 127.359375 -110.335938 126.464844 -104.105469 126.464844 -97.28125 C 126.464844 -90.964844 126.71875 -85.332031 127.230469 -80.382812 C 127.742188 -75.433594 128.214844 -70.613281 128.640625 -65.921875 C 129.066406 -61.226562 129.28125 -55.894531 129.28125 -49.921875 C 129.28125 -33.367188 124.886719 -20.394531 116.097656 -11.007812 C 107.308594 -1.621094 93.695312 3.070312 75.265625 3.070312 C 61.269531 3.070312 49.535156 -0.296875 40.0625 -7.039062 C 30.59375 -13.78125 23.425781 -23.253906 18.558594 -35.457031 C 13.695312 -47.660156 11.265625 -61.953125 11.265625 -78.335938 C 11.265625 -92.671875 13.226562 -104.492188 17.152344 -113.792969 C 21.078125 -123.09375 26.367188 -130.003906 33.023438 -134.527344 C 39.679688 -139.050781 47.105469 -141.3125 55.296875 -141.3125 C 63.828125 -141.3125 70.785156 -138.625 76.160156 -133.246094 C 81.535156 -127.871094 84.222656 -120.746094 84.222656 -111.871094 C 84.222656 -106.070312 82.945312 -100.691406 80.382812 -95.742188 C 77.824219 -90.792969 73.8125 -86.785156 68.351562 -83.710938 C 62.890625 -80.640625 55.636719 -79.105469 46.59375 -79.105469 C 40.617188 -79.105469 35.242188 -80.128906 30.464844 -82.175781 C 25.683594 -84.222656 21.761719 -86.441406 18.6875 -88.832031 C 18.347656 -85.246094 18.175781 -81.75 18.175781 -78.335938 C 18.347656 -55.636719 23.039062 -37.503906 32.257812 -23.9375 C 41.472656 -10.367188 55.808594 -3.585938 75.265625 -3.585938 C 91.988281 -3.585938 104.019531 -7.550781 111.359375 -15.488281 C 118.699219 -23.425781 122.367188 -34.902344 122.367188 -49.921875 C 122.367188 -58.453125 121.898438 -66.261719 120.960938 -73.34375 C 120.019531 -80.425781 119.550781 -88.40625 119.550781 -97.28125 C 119.550781 -110.078125 122.582031 -120.617188 128.640625 -128.894531 C 134.699219 -137.171875 144.382812 -141.3125 157.695312 -141.3125 C 162.644531 -141.3125 166.953125 -140.671875 170.625 -139.390625 C 174.292969 -138.113281 177.492188 -136.277344 180.222656 -133.886719 C 185.515625 -129.449219 189.140625 -123.476562 191.105469 -115.96875 C 193.066406 -108.457031 194.046875 -99.15625 194.046875 -88.0625 L 194.046875 -50.945312 C 194.046875 -41.558594 194.816406 -33.492188 196.351562 -26.753906 C 197.886719 -20.011719 200.789062 -14.675781 205.054688 -10.753906 C 207.445312 -8.535156 210.433594 -6.785156 214.015625 -5.503906 C 217.601562 -4.222656 221.867188 -3.585938 226.816406 -3.585938 C 238.421875 -3.585938 246.398438 -6.953125 250.753906 -13.695312 C 255.105469 -20.4375 257.28125 -29.695312 257.28125 -41.472656 C 257.28125 -47.273438 256.9375 -53.71875 256.257812 -60.800781 C 255.574219 -67.882812 255.230469 -75.347656 255.230469 -83.199219 C 255.230469 -95.148438 257.492188 -105.429688 262.015625 -114.046875 C 266.539062 -122.667969 272.851562 -129.367188 280.960938 -134.144531 C 289.066406 -138.921875 298.410156 -141.3125 308.992188 -141.3125 C 321.792969 -141.3125 332.929688 -137.984375 342.398438 -131.328125 C 351.871094 -124.671875 359.210938 -115.15625 364.414062 -102.785156 C 369.621094 -90.410156 372.222656 -75.777344 372.222656 -58.878906 C 372.222656 -44.375 370.132812 -32.554688 365.953125 -23.425781 C 361.769531 -14.292969 356.097656 -7.59375 348.929688 -3.328125 C 341.761719 0.9375 333.824219 3.070312 325.121094 3.070312 C 312.660156 3.070312 303.1875 -0.425781 296.703125 -7.425781 C 290.21875 -14.421875 286.976562 -23.125 286.976562 -33.535156 C 286.976562 -41.214844 288.214844 -47.445312 290.6875 -52.222656 C 293.164062 -57.003906 296.234375 -60.5 299.902344 -62.71875 C 303.574219 -64.9375 307.113281 -66.046875 310.527344 -66.046875 C 313.941406 -66.046875 316.332031 -65.28125 317.695312 -63.742188 C 319.0625 -62.207031 319.742188 -60.414062 319.742188 -58.367188 C 319.742188 -55.636719 319.105469 -53.800781 317.824219 -52.863281 C 316.542969 -51.925781 314.964844 -51.457031 313.089844 -51.457031 C 308.652344 -51.457031 306.433594 -54.101562 306.433594 -59.390625 C 302.847656 -57.683594 299.820312 -54.613281 297.34375 -50.175781 C 294.871094 -45.738281 293.632812 -40.191406 293.632812 -33.535156 C 293.632812 -24.320312 296.320312 -17.023438 301.695312 -11.648438 C 307.070312 -6.273438 314.878906 -3.585938 325.121094 -3.585938 C 332.457031 -3.585938 339.15625 -5.332031 345.214844 -8.832031 C 351.273438 -12.332031 356.140625 -18.132812 359.808594 -26.238281 C 363.476562 -34.347656 365.3125 -45.226562 365.3125 -58.878906 C 365.3125 -82.261719 360.363281 -100.734375 350.464844 -114.304688 C 340.566406 -127.871094 326.828125 -134.65625 309.246094 -134.65625 C 294.230469 -134.65625 282.582031 -129.878906 274.304688 -120.320312 C 266.027344 -110.761719 261.886719 -97.960938 261.886719 -81.921875 C 261.886719 -73.898438 262.230469 -66.773438 262.910156 -60.542969 C 263.59375 -54.316406 263.9375 -47.785156 263.9375 -40.960938 C 263.9375 -11.605469 251.476562 3.070312 226.558594 3.070312 Z M 54.785156 -134.65625 C 45.226562 -134.65625 37.417969 -131.285156 31.359375 -124.542969 C 25.300781 -117.800781 21.332031 -108.203125 19.457031 -95.742188 C 22.699219 -93.011719 26.582031 -90.667969 31.105469 -88.703125 C 35.625 -86.742188 40.789062 -85.761719 46.59375 -85.761719 C 57.683594 -85.761719 65.578125 -88.234375 70.273438 -93.183594 C 74.964844 -98.132812 77.3125 -104.277344 77.3125 -111.617188 C 77.3125 -118.273438 75.433594 -123.777344 71.679688 -128.128906 C 67.925781 -132.480469 62.292969 -134.65625 54.785156 -134.65625 Z M 54.785156 -134.65625 " fill="#6B5B4A" transform="translate(16.0,223.109375)"/><path d="M 78.335938 3.070312 C 65.367188 3.070312 53.886719 0.46875 43.902344 -4.734375 C 33.921875 -9.941406 26.113281 -17.75 20.480469 -28.160156 C 14.847656 -38.570312 12.03125 -51.371094 12.03125 -66.558594 C 12.03125 -81.238281 15.230469 -94.550781 21.632812 -106.496094 C 28.03125 -118.441406 38.398438 -126.890625 52.734375 -131.839844 L 12.03125 -131.839844 L 12.03125 -138.238281 L 100.097656 -138.238281 C 108.800781 -138.238281 115.585938 -138.625 120.449219 -139.390625 C 125.3125 -140.160156 129.109375 -141.824219 131.839844 -144.382812 C 135.765625 -147.96875 137.726562 -153.683594 137.726562 -161.535156 C 137.726562 -166.316406 136.617188 -171.390625 134.398438 -176.769531 C 132.179688 -182.144531 128 -188.246094 121.855469 -195.070312 L 127.230469 -199.167969 C 133.546875 -191.828125 138.027344 -185.214844 140.671875 -179.328125 C 143.316406 -173.441406 144.640625 -167.507812 144.640625 -161.535156 C 144.640625 -156.246094 143.957031 -151.894531 142.59375 -148.480469 C 141.226562 -145.066406 139.347656 -142.25 136.960938 -140.03125 C 133.207031 -136.617188 128.640625 -134.398438 123.265625 -133.375 C 117.886719 -132.351562 111.871094 -131.839844 105.214844 -131.839844 C 118.871094 -126.207031 128.851562 -117.589844 135.167969 -105.984375 C 141.484375 -94.378906 144.640625 -81.152344 144.640625 -66.304688 C 144.640625 -52.820312 142.207031 -40.832031 137.34375 -30.335938 C 132.480469 -19.839844 125.140625 -11.648438 115.328125 -5.761719 C 105.515625 0.128906 93.183594 3.070312 78.335938 3.070312 Z M 78.59375 -3.585938 C 92.246094 -3.585938 103.382812 -6.230469 112 -11.519531 C 120.617188 -16.8125 127.019531 -24.191406 131.199219 -33.664062 C 135.382812 -43.136719 137.472656 -54.015625 137.472656 -66.304688 C 137.472656 -79.785156 134.910156 -91.476562 129.792969 -101.375 C 124.671875 -111.273438 117.675781 -118.953125 108.800781 -124.414062 C 99.925781 -129.878906 89.941406 -132.609375 78.847656 -132.609375 C 66.902344 -132.609375 56.449219 -129.835938 47.488281 -124.289062 C 38.527344 -118.742188 31.574219 -111.019531 26.625 -101.121094 C 21.675781 -91.222656 19.199219 -79.703125 19.199219 -66.558594 C 19.199219 -45.566406 24.492188 -29.824219 35.070312 -19.328125 C 45.652344 -8.832031 60.160156 -3.585938 78.59375 -3.585938 Z M 78.59375 -3.585938 " fill="#6B5B4A" transform="translate(400.0,223.109375)"/><path d="M 35.839844 3.070312 C 22.871094 3.070312 11.945312 0 3.070312 -6.144531 C -5.800781 -12.289062 -13.738281 -19.882812 -20.734375 -28.929688 L -16.894531 -33.792969 C -9.898438 -24.746094 -2.347656 -17.449219 5.761719 -11.902344 C 13.867188 -6.355469 23.894531 -3.585938 35.839844 -3.585938 C 47.445312 -3.585938 56.875 -7.550781 64.128906 -15.488281 C 71.382812 -23.425781 75.007812 -35.667969 75.007812 -52.222656 C 75.007812 -71.339844 70.101562 -87.9375 60.289062 -102.015625 C 50.476562 -116.097656 36.691406 -127.230469 18.945312 -135.425781 L 22.015625 -141.566406 C 33.792969 -135.9375 44.203125 -128.851562 53.246094 -120.320312 C 62.292969 -111.785156 69.332031 -101.886719 74.367188 -90.625 C 79.402344 -79.359375 81.921875 -66.476562 81.921875 -51.96875 C 81.921875 -35.753906 77.910156 -22.527344 69.886719 -12.289062 C 61.867188 -2.046875 50.515625 3.070312 35.839844 3.070312 Z M 35.839844 3.070312 " fill="#6B5B4A" transform="translate(554.109375,223.109375)"/></g>
  <circle cx="51.6" cy="49" r="1.7" fill="#FF5900"/>
  <g transform="translate(58.12168509284353,40) scale(0.0587) translate(-25.43,-64.09)"><path d="M 261.390625 -83.671875 C 261.929688 -84.03125 262.421875 -84.390625 262.871094 -84.75 C 263.320312 -85.109375 263.816406 -85.421875 264.355469 -85.691406 C 267.40625 -87.757812 270.328125 -89.800781 273.113281 -91.824219 C 275.894531 -93.84375 278.367188 -95.933594 280.523438 -98.089844 C 282.679688 -100.246094 284.382812 -102.535156 285.640625 -104.960938 C 286.898438 -107.386719 287.527344 -110.078125 287.527344 -113.042969 C 287.527344 -114.390625 287.371094 -116.03125 287.058594 -117.960938 C 286.742188 -119.894531 286.046875 -121.757812 284.96875 -123.554688 C 283.890625 -125.351562 282.273438 -126.898438 280.117188 -128.203125 C 277.960938 -129.503906 275.085938 -130.15625 271.496094 -130.15625 C 269.339844 -130.15625 267.386719 -129.863281 265.632812 -129.28125 C 263.882812 -128.695312 262.289062 -127.886719 260.851562 -126.855469 C 259.414062 -125.820312 258.066406 -124.652344 256.808594 -123.351562 C 255.550781 -122.050781 254.382812 -120.679688 253.304688 -119.242188 L 242.390625 -134.0625 C 243.558594 -135.410156 245.0625 -136.9375 246.90625 -138.644531 C 248.746094 -140.351562 250.925781 -141.945312 253.441406 -143.425781 C 255.953125 -144.910156 258.808594 -146.167969 261.996094 -147.199219 C 265.183594 -148.234375 268.710938 -148.75 272.574219 -148.75 C 278.230469 -148.75 283.171875 -147.851562 287.394531 -146.054688 C 291.617188 -144.257812 295.097656 -141.765625 297.835938 -138.578125 C 300.574219 -135.386719 302.640625 -131.570312 304.035156 -127.125 C 305.425781 -122.679688 306.121094 -117.761719 306.121094 -112.371094 C 306.121094 -108.6875 305.582031 -105.296875 304.503906 -102.199219 C 303.425781 -99.097656 301.945312 -96.203125 300.058594 -93.507812 C 298.171875 -90.8125 295.972656 -88.320312 293.457031 -86.03125 C 290.941406 -83.738281 288.292969 -81.515625 285.507812 -79.359375 C 292.246094 -76.214844 297.363281 -71.546875 300.867188 -65.347656 C 304.371094 -59.148438 306.121094 -51.289062 306.121094 -41.769531 C 306.121094 -37.007812 305.222656 -32.359375 303.425781 -27.824219 C 301.632812 -23.285156 299.09375 -19.199219 295.816406 -15.5625 C 292.535156 -11.925781 288.605469 -9.003906 284.023438 -6.804688 C 279.445312 -4.601562 274.414062 -3.503906 268.933594 -3.503906 C 263.007812 -3.503906 257.75 -4.601562 253.171875 -6.804688 C 248.589844 -9.003906 244.703125 -11.835938 241.515625 -15.292969 C 238.328125 -18.75 235.902344 -22.636719 234.238281 -26.949219 C 232.578125 -31.257812 231.746094 -35.570312 231.746094 -39.882812 C 231.746094 -45.09375 232.511719 -49.742188 234.039062 -53.828125 C 235.566406 -57.914062 237.632812 -61.664062 240.234375 -65.078125 L 205.339844 -65.078125 C 206.867188 -62.203125 208.054688 -59.21875 208.910156 -56.117188 C 209.761719 -53.019531 210.191406 -49.898438 210.191406 -46.753906 C 210.191406 -39.746094 208.933594 -33.371094 206.417969 -27.621094 C 203.902344 -21.871094 200.285156 -16.953125 195.570312 -12.867188 C 190.855469 -8.78125 185.171875 -5.613281 178.527344 -3.367188 C 171.878906 -1.121094 164.46875 0 156.292969 0 C 146.773438 0 138.441406 -1.75 131.300781 -5.253906 C 124.160156 -8.757812 117.761719 -13.878906 112.101562 -20.613281 C 108.597656 -16.753906 105.074219 -13.519531 101.523438 -10.914062 C 97.976562 -8.308594 94.40625 -6.199219 90.8125 -4.582031 C 87.21875 -2.964844 83.648438 -1.796875 80.101562 -1.078125 C 76.554688 -0.359375 73.074219 0 69.660156 0 C 61.304688 0 53.46875 -1.820312 46.148438 -5.457031 C 38.828125 -9.09375 32.449219 -13.921875 27.015625 -19.941406 C 21.582031 -25.960938 17.292969 -32.898438 14.148438 -40.757812 C 11.003906 -48.617188 9.429688 -56.722656 9.429688 -65.078125 C 9.429688 -75.046875 11.363281 -84.414062 15.226562 -93.171875 C 19.085938 -101.929688 24.363281 -109.789062 31.058594 -116.75 C 37.75 -123.710938 45.609375 -129.640625 54.636719 -134.535156 C 63.664062 -139.429688 73.386719 -143 83.804688 -145.246094 L 83.804688 -204.53125 L 102.398438 -204.53125 L 102.398438 -147.671875 C 103.117188 -147.671875 103.835938 -147.695312 104.554688 -147.738281 C 105.273438 -147.785156 106.039062 -147.804688 106.847656 -147.804688 C 111.15625 -147.804688 115.222656 -147.625 119.039062 -147.265625 C 122.859375 -146.90625 126.609375 -146.503906 130.289062 -146.054688 L 130.289062 -204.53125 L 148.882812 -204.53125 L 148.882812 -141.878906 C 154.273438 -140.261719 159.191406 -138.398438 163.636719 -136.285156 C 168.085938 -134.175781 172.105469 -131.996094 175.695312 -129.75 C 179.289062 -127.507812 182.433594 -125.238281 185.128906 -122.949219 C 187.824219 -120.65625 190.113281 -118.523438 192 -116.546875 L 175.023438 -106.980469 C 170.980469 -110.664062 166.355469 -113.898438 161.144531 -116.683594 C 155.933594 -119.464844 150.390625 -121.78125 144.503906 -123.621094 C 138.621094 -125.460938 132.492188 -126.855469 126.113281 -127.796875 C 119.734375 -128.742188 113.3125 -129.210938 106.847656 -129.210938 C 99.480469 -129.210938 91.933594 -128.179688 84.210938 -126.113281 C 76.484375 -124.046875 69.164062 -121.0625 62.25 -117.152344 C 55.332031 -113.246094 49.15625 -108.464844 43.722656 -102.804688 C 38.289062 -97.144531 34.179688 -90.769531 31.394531 -83.671875 Z M 139.855469 -49.988281 C 139.855469 -55.554688 141.023438 -60.585938 143.359375 -65.078125 L 28.023438 -65.078125 C 28.023438 -58.519531 29.214844 -52.414062 31.597656 -46.753906 C 33.976562 -41.09375 37.097656 -36.175781 40.960938 -32 C 44.824219 -27.824219 49.246094 -24.542969 54.230469 -22.164062 C 59.21875 -19.785156 64.359375 -18.59375 69.660156 -18.59375 C 74.507812 -18.59375 78.796875 -19.558594 82.527344 -21.492188 C 86.253906 -23.421875 89.464844 -25.824219 92.160156 -28.699219 C 94.855469 -31.574219 97.03125 -34.605469 98.695312 -37.792969 C 100.355469 -40.984375 101.589844 -43.878906 102.398438 -46.484375 L 120.992188 -46.484375 C 122.339844 -42.261719 124.203125 -38.46875 126.585938 -35.097656 C 128.964844 -31.730469 131.683594 -28.832031 134.738281 -26.410156 C 137.789062 -23.984375 141.113281 -22.097656 144.707031 -20.75 C 148.300781 -19.402344 151.984375 -18.683594 155.753906 -18.59375 C 153.421875 -20.390625 151.285156 -22.457031 149.355469 -24.792969 C 147.425781 -27.128906 145.761719 -29.640625 144.371094 -32.335938 C 142.976562 -35.03125 141.878906 -37.882812 141.070312 -40.894531 C 140.261719 -43.902344 139.855469 -46.933594 139.855469 -49.988281 Z M 287.527344 -41.769531 C 287.527344 -45.632812 286.945312 -48.953125 285.777344 -51.738281 C 284.609375 -54.523438 283.015625 -56.859375 280.992188 -58.746094 C 278.972656 -60.632812 276.660156 -62.070312 274.054688 -63.058594 C 271.449219 -64.042969 268.664062 -64.671875 265.699219 -64.941406 C 261.390625 -61.351562 257.75 -57.578125 254.789062 -53.625 C 251.824219 -49.671875 250.339844 -45.09375 250.339844 -39.882812 C 250.339844 -34.671875 251.890625 -30.40625 254.988281 -27.082031 C 258.089844 -23.757812 262.738281 -22.097656 268.933594 -22.097656 C 271.808594 -22.097656 274.390625 -22.75 276.683594 -24.050781 C 278.972656 -25.351562 280.925781 -26.992188 282.542969 -28.96875 C 284.160156 -30.945312 285.394531 -33.078125 286.25 -35.367188 C 287.101562 -37.660156 287.527344 -39.792969 287.527344 -41.769531 Z M 191.597656 -47.5625 C 191.597656 -50.078125 191.148438 -52.367188 190.25 -54.433594 C 189.351562 -56.5 188.113281 -58.320312 186.542969 -59.890625 C 184.972656 -61.460938 183.195312 -62.699219 181.222656 -63.597656 C 179.246094 -64.492188 177.179688 -64.988281 175.023438 -65.078125 L 173.675781 -65.078125 C 171.609375 -64.988281 169.566406 -64.492188 167.546875 -63.597656 C 165.523438 -62.699219 163.683594 -61.484375 162.019531 -59.957031 C 160.359375 -58.429688 159.011719 -56.589844 157.980469 -54.433594 C 156.945312 -52.277344 156.429688 -49.851562 156.429688 -47.15625 C 156.429688 -45.363281 156.742188 -43.40625 157.371094 -41.296875 C 158 -39.1875 159.011719 -37.007812 160.402344 -34.761719 C 161.796875 -32.515625 163.570312 -30.292969 165.726562 -28.09375 C 167.882812 -25.890625 170.488281 -23.847656 173.542969 -21.960938 C 175.964844 -22.949219 178.28125 -24.207031 180.480469 -25.734375 C 182.679688 -27.261719 184.589844 -29.082031 186.207031 -31.191406 C 187.824219 -33.300781 189.125 -35.707031 190.113281 -38.398438 C 191.101562 -41.09375 191.597656 -44.148438 191.597656 -47.5625 Z M 191.597656 -47.5625 " fill="#6B5B4A" transform="translate(16.0,268.625)"/><path d="M 51.066406 -170.308594 L 75.722656 -153.195312 C 77.789062 -151.757812 79.605469 -150.75 81.179688 -150.164062 C 82.75 -149.582031 84.300781 -149.242188 85.828125 -149.152344 C 88.703125 -149.152344 91.621094 -150.5 94.585938 -153.195312 L 147.132812 -201.566406 L 158.585938 -189.980469 L 108.464844 -144.84375 C 115.46875 -142.328125 122.230469 -138.914062 128.742188 -134.601562 C 135.253906 -130.289062 141.023438 -125.148438 146.054688 -119.175781 C 151.085938 -113.203125 155.105469 -106.464844 158.113281 -98.964844 C 161.121094 -91.464844 162.628906 -83.265625 162.628906 -74.375 C 162.628906 -63.238281 160.605469 -53.085938 156.5625 -43.925781 C 152.523438 -34.761719 147.019531 -26.925781 140.058594 -20.414062 C 133.097656 -13.898438 124.96875 -8.871094 115.671875 -5.320312 C 106.375 -1.773438 96.472656 0 85.960938 0 C 75.632812 0 65.839844 -1.773438 56.589844 -5.320312 C 47.335938 -8.871094 39.207031 -13.898438 32.203125 -20.414062 C 25.195312 -26.925781 19.648438 -34.761719 15.5625 -43.925781 C 11.476562 -53.085938 9.429688 -63.238281 9.429688 -74.375 C 9.429688 -83.085938 10.824219 -91.058594 13.609375 -98.289062 C 16.394531 -105.519531 20.074219 -112.011719 24.65625 -117.761719 C 29.238281 -123.507812 34.539062 -128.492188 40.554688 -132.714844 C 46.574219 -136.9375 52.816406 -140.441406 59.285156 -143.226562 L 40.421875 -156.292969 Z M 28.292969 -74.375 C 28.292969 -65.570312 29.910156 -57.710938 33.144531 -50.796875 C 36.378906 -43.878906 40.691406 -38.039062 46.078125 -33.28125 C 51.46875 -28.519531 57.621094 -24.882812 64.539062 -22.367188 C 71.457031 -19.851562 78.597656 -18.59375 85.960938 -18.59375 C 93.238281 -18.59375 100.335938 -19.941406 107.25 -22.636719 C 114.167969 -25.332031 120.320312 -29.101562 125.710938 -33.953125 C 131.097656 -38.804688 135.433594 -44.664062 138.710938 -51.535156 C 141.988281 -58.410156 143.628906 -66.019531 143.628906 -74.375 C 143.628906 -82.457031 141.96875 -89.914062 138.644531 -96.742188 C 135.320312 -103.566406 130.941406 -109.453125 125.507812 -114.390625 C 120.074219 -119.332031 113.898438 -123.195312 106.980469 -125.980469 C 100.066406 -128.761719 93.058594 -130.15625 85.960938 -130.15625 C 78.777344 -130.15625 71.746094 -128.785156 64.875 -126.046875 C 58.003906 -123.308594 51.851562 -119.464844 46.417969 -114.527344 C 40.984375 -109.585938 36.601562 -103.703125 33.28125 -96.875 C 29.957031 -90.050781 28.292969 -82.546875 28.292969 -74.375 Z M 149.152344 -43.386719 C 150.230469 -40.511719 151.757812 -37.589844 153.734375 -34.628906 C 155.710938 -31.664062 158.070312 -28.992188 160.808594 -26.609375 C 163.546875 -24.230469 166.625 -22.300781 170.039062 -20.816406 C 173.453125 -19.335938 177.179688 -18.59375 181.222656 -18.59375 C 187.867188 -18.59375 193.660156 -19.851562 198.601562 -22.367188 C 203.542969 -24.882812 207.675781 -28.273438 210.996094 -32.539062 C 214.320312 -36.804688 216.792969 -41.746094 218.410156 -47.359375 C 220.023438 -52.972656 220.832031 -58.878906 220.832031 -65.078125 C 220.832031 -70.738281 220.136719 -76.574219 218.746094 -82.59375 C 217.351562 -88.613281 214.835938 -94.71875 211.199219 -100.917969 C 207.5625 -107.117188 202.597656 -113.269531 196.3125 -119.375 C 190.023438 -125.484375 181.941406 -131.457031 172.058594 -137.296875 L 181.355469 -152.117188 C 189.082031 -148.074219 195.886719 -143.71875 201.769531 -139.046875 C 207.652344 -134.378906 212.75 -129.527344 217.0625 -124.496094 C 221.371094 -119.464844 224.964844 -114.347656 227.839844 -109.136719 C 230.714844 -103.925781 233.003906 -98.785156 234.710938 -93.710938 C 236.417969 -88.632812 237.632812 -83.671875 238.347656 -78.820312 C 239.066406 -73.96875 239.425781 -69.390625 239.425781 -65.078125 C 239.425781 -54.570312 238.011719 -45.273438 235.183594 -37.1875 C 232.355469 -29.101562 228.378906 -22.300781 223.257812 -16.773438 C 218.140625 -11.25 212.007812 -7.074219 204.867188 -4.246094 C 197.726562 -1.414062 189.84375 0 181.222656 0 C 177.089844 0 172.777344 -0.695312 168.285156 -2.089844 C 163.796875 -3.480469 159.460938 -5.5 155.285156 -8.152344 C 151.105469 -10.800781 147.289062 -14.058594 143.832031 -17.921875 C 140.375 -21.78125 137.609375 -26.230469 135.546875 -31.257812 Z M 149.152344 -43.386719 " fill="#6B5B4A" transform="translate(340.984375,268.625)"/></g>
</svg>
