<svg xmlns="http://www.w3.org/2000/svg" viewBox="0 0 96 96" fill="none">
  <rect width="96" height="96" rx="22" fill="#1A1A1A"/>
  <g transform="translate(12.00,33.60) scale(0.1994) translate(-11.3,141.309)"><path d="M 226.558594 3.070312 C 220.757812 3.070312 215.722656 2.261719 211.457031 0.640625 C 207.1875 -0.980469 203.519531 -3.15625 200.449219 -5.886719 C 195.667969 -10.324219 192.296875 -16.042969 190.335938 -23.039062 C 188.375 -30.039062 187.390625 -38.742188 187.390625 -49.152344 L 187.390625 -84.992188 C 187.390625 -94.378906 186.667969 -102.910156 185.214844 -110.59375 C 183.765625 -118.273438 180.734375 -124.246094 176.128906 -128.511719 C 171.863281 -132.609375 165.71875 -134.65625 157.695312 -134.65625 C 149.675781 -134.65625 143.359375 -132.949219 138.753906 -129.535156 C 134.144531 -126.121094 130.945312 -121.601562 129.152344 -115.96875 C 127.359375 -110.335938 126.464844 -104.105469 126.464844 -97.28125 C 126.464844 -90.964844 126.71875 -85.332031 127.230469 -80.382812 C 127.742188 -75.433594 128.214844 -70.613281 128.640625 -65.921875 C 129.066406 -61.226562 129.28125 -55.894531 129.28125 -49.921875 C 129.28125 -33.367188 124.886719 -20.394531 116.097656 -11.007812 C 107.308594 -1.621094 93.695312 3.070312 75.265625 3.070312 C 61.269531 3.070312 49.535156 -0.296875 40.0625 -7.039062 C 30.59375 -13.78125 23.425781 -23.253906 18.558594 -35.457031 C 13.695312 -47.660156 11.265625 -61.953125 11.265625 -78.335938 C 11.265625 -92.671875 13.226562 -104.492188 17.152344 -113.792969 C 21.078125 -123.09375 26.367188 -130.003906 33.023438 -134.527344 C 39.679688 -139.050781 47.105469 -141.3125 55.296875 -141.3125 C 63.828125 -141.3125 70.785156 -138.625 76.160156 -133.246094 C 81.535156 -127.871094 84.222656 -120.746094 84.222656 -111.871094 C 84.222656 -106.070312 82.945312 -100.691406 80.382812 -95.742188 C 77.824219 -90.792969 73.8125 -86.785156 68.351562 -83.710938 C 62.890625 -80.640625 55.636719 -79.105469 46.59375 -79.105469 C 40.617188 -79.105469 35.242188 -80.128906 30.464844 -82.175781 C 25.683594 -84.222656 21.761719 -86.441406 18.6875 -88.832031 C 18.347656 -85.246094 18.175781 -81.75 18.175781 -78.335938 C 18.347656 -55.636719 23.039062 -37.503906 32.257812 -23.9375 C 41.472656 -10.367188 55.808594 -3.585938 75.265625 -3.585938 C 91.988281 -3.585938 104.019531 -7.550781 111.359375 -15.488281 C 118.699219 -23.425781 122.367188 -34.902344 122.367188 -49.921875 C 122.367188 -58.453125 121.898438 -66.261719 120.960938 -73.34375 C 120.019531 -80.425781 119.550781 -88.40625 119.550781 -97.28125 C 119.550781 -110.078125 122.582031 -120.617188 128.640625 -128.894531 C 134.699219 -137.171875 144.382812 -141.3125 157.695312 -141.3125 C 162.644531 -141.3125 166.953125 -140.671875 170.625 -139.390625 C 174.292969 -138.113281 177.492188 -136.277344 180.222656 -133.886719 C 185.515625 -129.449219 189.140625 -123.476562 191.105469 -115.96875 C 193.066406 -108.457031 194.046875 -99.15625 194.046875 -88.0625 L 194.046875 -50.945312 C 194.046875 -41.558594 194.816406 -33.492188 196.351562 -26.753906 C 197.886719 -20.011719 200.789062 -14.675781 205.054688 -10.753906 C 207.445312 -8.535156 210.433594 -6.785156 214.015625 -5.503906 C 217.601562 -4.222656 221.867188 -3.585938 226.816406 -3.585938 C 238.421875 -3.585938 246.398438 -6.953125 250.753906 -13.695312 C 255.105469 -20.4375 257.28125 -29.695312 257.28125 -41.472656 C 257.28125 -47.273438 256.9375 -53.71875 256.257812 -60.800781 C 255.574219 -67.882812 255.230469 -75.347656 255.230469 -83.199219 C 255.230469 -95.148438 257.492188 -105.429688 262.015625 -114.046875 C 266.539062 -122.667969 272.851562 -129.367188 280.960938 -134.144531 C 289.066406 -138.921875 298.410156 -141.3125 308.992188 -141.3125 C 321.792969 -141.3125 332.929688 -137.984375 342.398438 -131.328125 C 351.871094 -124.671875 359.210938 -115.15625 364.414062 -102.785156 C 369.621094 -90.410156 372.222656 -75.777344 372.222656 -58.878906 C 372.222656 -44.375 370.132812 -32.554688 365.953125 -23.425781 C 361.769531 -14.292969 356.097656 -7.59375 348.929688 -3.328125 C 341.761719 0.9375 333.824219 3.070312 325.121094 3.070312 C 312.660156 3.070312 303.1875 -0.425781 296.703125 -7.425781 C 290.21875 -14.421875 286.976562 -23.125 286.976562 -33.535156 C 286.976562 -41.214844 288.214844 -47.445312 290.6875 -52.222656 C 293.164062 -57.003906 296.234375 -60.5 299.902344 -62.71875 C 303.574219 -64.9375 307.113281 -66.046875 310.527344 -66.046875 C 313.941406 -66.046875 316.332031 -65.28125 317.695312 -63.742188 C 319.0625 -62.207031 319.742188 -60.414062 319.742188 -58.367188 C 319.742188 -55.636719 319.105469 -53.800781 317.824219 -52.863281 C 316.542969 -51.925781 314.964844 -51.457031 313.089844 -51.457031 C 308.652344 -51.457031 306.433594 -54.101562 306.433594 -59.390625 C 302.847656 -57.683594 299.820312 -54.613281 297.34375 -50.175781 C 294.871094 -45.738281 293.632812 -40.191406 293.632812 -33.535156 C 293.632812 -24.320312 296.320312 -17.023438 301.695312 -11.648438 C 307.070312 -6.273438 314.878906 -3.585938 325.121094 -3.585938 C 332.457031 -3.585938 339.15625 -5.332031 345.214844 -8.832031 C 351.273438 -12.332031 356.140625 -18.132812 359.808594 -26.238281 C 363.476562 -34.347656 365.3125 -45.226562 365.3125 -58.878906 C 365.3125 -82.261719 360.363281 -100.734375 350.464844 -114.304688 C 340.566406 -127.871094 326.828125 -134.65625 309.246094 -134.65625 C 294.230469 -134.65625 282.582031 -129.878906 274.304688 -120.320312 C 266.027344 -110.761719 261.886719 -97.960938 261.886719 -81.921875 C 261.886719 -73.898438 262.230469 -66.773438 262.910156 -60.542969 C 263.59375 -54.316406 263.9375 -47.785156 263.9375 -40.960938 C 263.9375 -11.605469 251.476562 3.070312 226.558594 3.070312 Z M 54.785156 -134.65625 C 45.226562 -134.65625 37.417969 -131.285156 31.359375 -124.542969 C 25.300781 -117.800781 21.332031 -108.203125 19.457031 -95.742188 C 22.699219 -93.011719 26.582031 -90.667969 31.105469 -88.703125 C 35.625 -86.742188 40.789062 -85.761719 46.59375 -85.761719 C 57.683594 -85.761719 65.578125 -88.234375 70.273438 -93.183594 C 74.964844 -98.132812 77.3125 -104.277344 77.3125 -111.617188 C 77.3125 -118.273438 75.433594 -123.777344 71.679688 -128.128906 C 67.925781 -132.480469 62.292969 -134.65625 54.785156 -134.65625 Z M 54.785156 -134.65625" fill="#FF5900"/></g>
</svg>
